<svg xmlns="http://www.w3.org/2000/svg" viewBox="0 0 64 64" width="64" height="64" role="img" aria-label="季節の巡りのシンボル">
  <rect width="64" height="64" rx="12" fill="#34495e"/>
  <!-- 季節リング（四季を四分割・太陽が巡る） -->
  <g transform="translate(32 32)">
    <path d="M0 -20 A20 20 0 0 1 20 0 L11 0 A11 11 0 0 0 0 -11 Z" fill="#7faa5a"/>
    <path d="M20 0 A20 20 0 0 1 0 20 L0 11 A11 11 0 0 0 11 0 Z" fill="#3f8fb0"/>
    <path d="M0 20 A20 20 0 0 1 -20 0 L-11 0 A11 11 0 0 0 0 11 Z" fill="#c0613f"/>
    <path d="M-20 0 A20 20 0 0 1 0 -20 L0 -11 A11 11 0 0 0 -11 0 Z" fill="#6d7f96"/>
    <circle cx="0" cy="-20" r="4.5" fill="#e8c55a" stroke="#34495e" stroke-width="1.5"/>
  </g>
</svg>
